<?xml version="1.0" encoding="utf-8"?>
<!-- Generator: Adobe Illustrator 25.2.1, SVG Export Plug-In . SVG Version: 6.00 Build 0)  -->
<svg version="1.0" id="Livello_1" xmlns="http://www.w3.org/2000/svg" xmlns:xlink="http://www.w3.org/1999/xlink" x="0px" y="0px"
	 viewBox="0 0 2267.72 1417.32" style="enable-background:new 0 0 2267.72 1417.32;" xml:space="preserve">
<style type="text/css">
	.st0{fill:none;stroke:#FF0000;stroke-width:2.834646e-03;stroke-linecap:round;stroke-linejoin:round;stroke-miterlimit:10;}
	.st1{font-family:'MyriadPro-Regular';}
	.st2{font-size:18.2724px;}
</style>
<path class="st0" d="M940.18,772.04V656.38c0-5.94,4.83-10.77,10.77-10.77h365.1c5.94,0,10.77,4.83,10.77,10.77v115.65H940.18z"/>
<g id="CIRCLE">
	<path class="st0" d="M948.11,656.38c0-1.57,1.27-2.83,2.83-2.83c1.57,0,2.83,1.27,2.83,2.83s-1.27,2.83-2.83,2.83
		C949.38,659.22,948.11,657.95,948.11,656.38L948.11,656.38z"/>
</g>
<g id="CIRCLE_1_">
	<path class="st0" d="M948.11,761.26c0-1.57,1.27-2.83,2.83-2.83c1.57,0,2.83,1.27,2.83,2.83c0,1.57-1.27,2.83-2.83,2.83
		C949.38,764.1,948.11,762.83,948.11,761.26L948.11,761.26z"/>
</g>
<g id="CIRCLE_2_">
	<path class="st0" d="M1313.22,761.26c0-1.57,1.27-2.83,2.83-2.83s2.83,1.27,2.83,2.83c0,1.57-1.27,2.83-2.83,2.83
		S1313.22,762.83,1313.22,761.26L1313.22,761.26z"/>
</g>
<g id="CIRCLE_3_">
	<path class="st0" d="M1313.22,656.38c0-1.57,1.27-2.83,2.83-2.83s2.83,1.27,2.83,2.83s-1.27,2.83-2.83,2.83
		S1313.22,657.95,1313.22,656.38L1313.22,656.38z"/>
</g>
<text transform="matrix(1 0 0 1 1086.333 713.0913)" class="st1 st2">@delucalabs</text>
</svg>
